<svg xmlns="http://www.w3.org/2000/svg" xmlns:xlink="http://www.w3.org/1999/xlink" width="189" height="33" viewBox="0 0 189 33">
    <defs>
        <path id="a" d="M145.59 32.463H.02V.333H145.59z"/>
        <path id="c" d="M145.59 32.463H.02V.333H145.59z"/>
    </defs>
    <g fill="none" fill-rule="evenodd">
        <g>
            <mask id="b" fill="#fff">
                <use xlink:href="#a"/>
            </mask>
            <path fill="#0A0B09" fill-rule="nonzero" d="M111.265 10.336h-3.696V14.2h-2.292v3.05h2.292v6.083c0 2.13.512 4.998 4.542 4.998.787 0 1.781-.164 2.374-.393l-.093-2.987a5.09 5.09 0 0 1-1.643.286c-1.094 0-1.484-.783-1.484-1.932v-6.056h3.277v-3.05h-3.277v-3.862zm28.79 10.355l4.877-6.492h-4.368l-2.799 3.965-2.72-3.965h-4.534l4.907 6.492-5.507 7.327h4.477l3.32-4.69 3.293 4.69h4.589l-5.536-7.327zm-43.29 4.455c-2.444 0-3.558-2.12-3.558-4.093 0-1.946 1.114-4.039 3.558-4.039 2.447 0 3.56 2.093 3.56 4.04 0 1.971-1.113 4.092-3.56 4.092zm0-11.336c-4.266 0-7.364 3.046-7.364 7.243 0 4.343 3.167 7.391 7.364 7.391 4.2 0 7.364-3.078 7.364-7.39 0-4.198-3.095-7.243-7.364-7.243zm28.624 8.354c0 2.049-1.14 3.334-3.206 3.334-.767 0-2.14-.236-2.14-1.477 0-1.334 1.64-2.155 4.844-2.155h.502v.298zm-2.495-8.354c-2.157 0-4.351.885-5.818 2.27L119 18.27c.883-.9 2.403-1.47 3.62-1.47 1.34 0 2.703.683 2.703 2.307v.242c-3.94.022-8.946.505-8.946 4.622 0 3.025 2.588 4.38 5.152 4.38 1.604 0 2.985-.928 3.832-1.935h.082v1.602h3.532v-8.355c0-2.186-.79-5.853-6.08-5.853zm-56.736 2.521h-.055V14.2h-3.615v13.819h3.751v-7.383c0-.032.167-3.374 3.416-3.374.268 0 .734.04 1.163.15v-3.486c-.261-.068-.848-.115-1.074-.115-1.476 0-2.736 1.23-3.586 2.521zm-25.593-5.995h-3.693V14.2h-2.295v3.05h2.295v6.083c0 2.13.509 4.998 4.54 4.998.786 0 1.78-.164 2.373-.393l-.09-2.987a5.095 5.095 0 0 1-1.646.286c-1.094 0-1.484-.783-1.484-1.932v-6.056h3.279v-3.05h-3.279v-3.862zm14.99 11.438c0 1.624-1.041 3.372-2.98 3.372-1.495 0-2.292-1.083-2.292-3.316V14.2h-3.751v8.576c0 2.853 1.4 5.631 5.142 5.631 1.766 0 3.243-1.414 3.987-2.457h.057v2.069h3.586v-13.82h-3.749v7.576zm24.654 3.372c-2.263 0-3.615-2.052-3.615-4.039 0-1.968 1.382-4.093 3.615-4.093 2.427 0 3.633 2.093 3.633 4.04 0 2.033-1.315 4.092-3.633 4.092zm.736-11.336c-1.714 0-2.977.763-4.17 1.9h-.07V6.585h-3.752v21.434h3.588v-1.953h.055c.846 1.41 2.527 2.341 4.269 2.341 3.87 0 6.805-3.092 6.805-7.353 0-4.197-2.899-7.243-6.725-7.243z" mask="url(#b)"/>
        </g>
        <g>
            <mask id="d" fill="#fff">
                <use xlink:href="#c"/>
            </mask>
            <path fill="#D52B1E" fill-rule="nonzero" d="M15.798.334C7.073.334 0 7.53 0 16.409c0 8.877 7.073 16.075 15.798 16.075s15.797-7.198 15.797-16.075C31.595 7.53 24.523.334 15.798.334" mask="url(#d)"/>
        </g>
        <path fill="#0A0B09" fill-rule="nonzero" d="M148.39 28.09h1.976V7.948h-1.976zM153.868 28.09h1.977V14.248h-1.977v13.84zm.988-15.897a1.426 1.426 0 0 1-1.395-1.42c0-.827.698-1.419 1.395-1.419.698 0 1.395.592 1.395 1.42s-.697 1.42-1.395 1.42zM165.474 28.09h-2.18l-5.55-13.841h2.208l4.418 11.711h.058l4.447-11.711h2.122l-5.523 13.84M182.273 20.104c-.116-2.602-1.685-4.525-4.505-4.525-2.645 0-4.592 2.16-4.766 4.525h9.271zm1.977 1.597h-11.277c.058 2.78 2.18 5.028 4.97 5.028 2.034 0 3.604-1.153 4.36-2.396l1.482 1.183c-1.599 2.07-3.604 2.928-5.842 2.928-4.04 0-7.034-3.105-7.034-7.275s2.994-7.275 6.859-7.275c4.273 0 6.511 3.075 6.511 6.86 0 .267 0 .593-.03.947z"/>
        <path fill="#1A1919" fill-rule="nonzero" d="M186.114 27.141h-.243v-1.553h-.558v-.217h1.359v.217h-.558v1.553M187.801 26.731h.005l.514-1.36h.378v1.77h-.244v-1.48h-.004l-.578 1.48h-.154l-.575-1.48h-.005v1.48h-.236v-1.77h.378l.521 1.36"/>
        <path fill="#FFFFFE" fill-rule="nonzero" d="M14.058 28.67c-2.446-1.483-6.006-4.116-8.67-6.417a49.09 49.09 0 0 1 1.654-4.211 67.323 67.323 0 0 0 5.23 4.261 44.824 44.824 0 0 1 12.21-14.738 12.522 12.522 0 0 1 2.427 3.505c-4.735 3.802-9.679 9.249-12.85 17.6"/>
    </g>
</svg>
