<svg xmlns="http://www.w3.org/2000/svg" width="142" height="31" viewBox="0 0 142 31">
    <g fill="none" fill-rule="nonzero">
        <g fill="#393A3D">
            <path d="M140.72 26.67c0-.367-.296-.501-.625-.501h-.558v1.673h.296v-.703h.197l.394.703h.361l-.427-.736c.197-.034.361-.167.361-.435zm-.887.269v-.469h.262c.165 0 .329.033.329.234s-.197.235-.361.235h-.23zm.262-1.373c-.82 0-1.444.67-1.444 1.473a1.45 1.45 0 0 0 1.444 1.473 1.45 1.45 0 0 0 1.445-1.473 1.45 1.45 0 0 0-1.445-1.473zm0 2.711c-.689 0-1.214-.569-1.214-1.238 0-.703.558-1.238 1.214-1.238.69 0 1.215.569 1.215 1.238 0 .67-.525 1.238-1.215 1.238zM76.532 15.191c-1.609 0-2.79.703-3.907 1.774h-.066V8.397h-3.513v20.081h3.35v-1.84h.065c.788 1.338 2.364 2.208 4.005 2.208 3.612 0 6.37-2.911 6.37-6.894 0-3.916-2.725-6.761-6.304-6.761zm-.69 10.61c-2.1 0-3.381-1.908-3.381-3.782 0-1.841 1.28-3.85 3.382-3.85 2.265 0 3.414 1.975 3.414 3.783 0 1.907-1.247 3.849-3.414 3.849zm-23.048-3.146c0 1.506-.985 3.146-2.79 3.146-1.412 0-2.134-1.004-2.134-3.113v-7.129h-3.514v8.033c0 2.677 1.314 5.288 4.794 5.288 1.642 0 3.02-1.339 3.743-2.31h.066v1.942h3.348V15.559h-3.513v7.096zM38.775 11.91h-3.447v3.615H33.16v2.845h2.134v5.69c0 2.007.492 4.685 4.235 4.685.722 0 1.675-.167 2.233-.368l-.099-2.812a4.443 4.443 0 0 1-1.543.268c-1.018 0-1.379-.736-1.379-1.807v-5.623h3.054v-2.845h-3.054v-3.648h.033zm23.935 5.623h-.066v-2.008h-3.382v12.952h3.513v-6.894c0-.034.165-3.147 3.185-3.147.263 0 .69.034 1.084.134v-3.28c-.23-.067-.788-.1-1.018-.1-1.346 0-2.528 1.138-3.316 2.343zm53.057-2.343c-2.003 0-4.071.837-5.45 2.142l1.805 2.042c.821-.837 2.233-1.373 3.382-1.373 1.248 0 2.528.636 2.528 2.176v.2c-3.677 0-8.372.47-8.372 4.318 0 2.845 2.43 4.117 4.826 4.117 1.51 0 2.791-.87 3.579-1.807h.066v1.506h3.316V20.68c0-2.075-.723-5.489-5.68-5.489zm2.33 7.832c0 1.907-1.05 3.112-2.987 3.112-.722 0-2.003-.234-2.003-1.372 0-1.238 1.543-2.008 4.531-2.008h.46v.268zM91.34 15.19c-4.005 0-6.894 2.845-6.894 6.794 0 4.083 2.955 6.928 6.894 6.928 3.94 0 6.895-2.878 6.895-6.928-.033-3.95-2.922-6.794-6.895-6.794zm0 10.61c-2.298 0-3.316-1.975-3.316-3.85 0-1.807 1.051-3.781 3.316-3.781 2.299 0 3.317 1.974 3.317 3.782 0 1.874-1.051 3.849-3.317 3.849zm40.483-4.184l4.563-6.091h-4.07l-2.627 3.715-2.528-3.715h-4.236l4.597 6.091-5.155 6.861h4.203l3.119-4.384 3.086 4.384h4.3l-5.252-6.861zm-26.923-9.706h-3.447v3.615h-2.134v2.845h2.134v5.69c0 2.007.492 4.685 4.235 4.685.723 0 1.675-.167 2.233-.368l-.099-2.812a4.443 4.443 0 0 1-1.543.268c-1.018 0-1.379-.736-1.379-1.807v-5.623h3.054v-2.845h-3.054v-3.648z"/>
        </g>
        <g transform="translate(0 .632)">
            <ellipse cx="14.732" cy="15.073" fill="#D52B1E" rx="14.732" ry="14.805"/>
            <path fill="#FFF" d="M11.355 20.559c-1.671-1.212-3.246-2.523-4.788-3.899a50.542 50.542 0 0 0-1.51 3.866c2.442 2.097 5.687 4.52 7.937 5.897 2.892-7.666 7.423-12.645 11.762-16.15a11.155 11.155 0 0 0-2.218-3.211 39.988 39.988 0 0 0-11.183 13.497z"/>
        </g>
    </g>
</svg>
