<svg xmlns="http://www.w3.org/2000/svg" width="218" height="127" viewBox="0 0 218 127">
    <defs>
        <filter id="a" width="106.9%" height="112.8%" x="-3.2%" y="-4.8%" filterUnits="objectBoundingBox">
            <feOffset dy="2" in="SourceAlpha" result="shadowOffsetOuter1"/>
            <feGaussianBlur in="shadowOffsetOuter1" result="shadowBlurOuter1" stdDeviation="2"/>
            <feColorMatrix in="shadowBlurOuter1" result="shadowMatrixOuter1" values="0 0 0 0 0 0 0 0 0 0 0 0 0 0 0 0 0 0 0.06 0"/>
            <feMerge>
                <feMergeNode in="shadowMatrixOuter1"/>
                <feMergeNode in="SourceGraphic"/>
            </feMerge>
        </filter>
    </defs>
    <g fill="none" fill-rule="evenodd">
        <g transform="translate(.702 .861)">
            <g filter="url(#a)">
                <path fill="#F1F1F1" stroke="#BDBCBC" stroke-width=".5" d="M19.427 117.194c0 .943.764 1.707 1.707 1.707h173.242c.943 0 1.707-.764 1.707-1.707V6.215A6.164 6.164 0 0 0 189.92.051H25.591a6.164 6.164 0 0 0-6.164 6.164v110.979z"/>
                <g stroke="#BDBCBC" stroke-width=".5">
                    <path fill="#F1F1F1" d="M214.666 119.473h.033a.033.033 0 0 1-.033-.033v.033zm0 .882v.154l.137-.223-.137.069zm-214.304.11a8.86 8.86 0 0 1-.11-.074l.11.208v-.135zm0-1.095v-.283h-.25v.25h.25a.033.033 0 0 1-.033.032h.033z"/>
                    <path fill="#D8D6D6" d="M.25 119.37v.853h214.576v-.853H.25z"/>
                </g>
            </g>
            <rect width="162.308" height="103.027" x="26.293" y="8.606" fill="#FFF" stroke="#D2D2D2" stroke-width="1.086" rx=".707"/>
            <path fill="#CAE7F1" d="M133.039 59.114c0-1.972-2.057-2.86-3.837-3.456-1.489-.504-2.168-.993-2.168-1.712 0-.49.569-1.07 1.616-1.07 1.01 0 2.406.764 2.552.84.221.123.496 0 .643-.183l.699-.872c.127-.152.072-.412-.11-.504-.301-.188-1.32-.747-2.704-.948v-1.453a.457.457 0 0 0-.456-.459h-.912a.457.457 0 0 0-.456.46v1.435c-2.297.277-3.278 1.659-3.278 2.877 0 1.804 1.726 2.72 3.453 3.302 1.543.52 2.331 1.055 2.331 1.835 0 .658-.715 1.177-1.67 1.177-1.194 0-2.68-.902-2.773-.948-.165-.107-.478-.107-.625.107l-.66.95c-.166.243-.074.32.091.457.317.25 1.37.949 3.13 1.141v1.428c0 .254.205.459.457.459h.912a.457.457 0 0 0 .456-.46v-1.44c2.053-.297 3.309-1.582 3.309-2.963"/>
            <path fill="#4D5662" d="M100.58 59.442h-8.115a.904.904 0 0 1-.901-.907c0-.501.403-.907.901-.907h8.115c.498 0 .902.406.902.907a.904.904 0 0 1-.902.907M103.285 63.977h-10.82a.904.904 0 0 1-.901-.907c0-.502.403-.907.901-.907h10.82c.498 0 .902.405.902.907a.904.904 0 0 1-.902.907M116.81 59.442h-8.115a.904.904 0 0 1-.902-.907c0-.501.404-.907.902-.907h8.114c.498 0 .902.406.902.907a.904.904 0 0 1-.902.907M119.514 63.977h-10.82a.904.904 0 0 1-.9-.907c0-.502.403-.907.9-.907h10.82c.498 0 .902.405.902.907a.904.904 0 0 1-.902.907"/>
            <path fill="#4D5662" d="M87.055 70.326V35.86h41.476v8.162c0 .502.404.907.901.907h8.115v25.396H87.055zm50.062-27.21h-6.783v-6.823l6.783 6.823zm1.97-.585l-8.171-8.219a.898.898 0 0 0-.638-.265H86.154a.904.904 0 0 0-.902.907v36.279c0 .501.404.907.902.907h52.295a.904.904 0 0 0 .901-.907v-28.06a.91.91 0 0 0-.264-.642z"/>
            <path fill="#53C27C" d="M95.259 51.139H93.41v-5.72l-1.452 1.122-.957-1.31 2.563-1.88h1.694v7.788zm8.745-3.916c0 2.21-.836 4.125-3.036 4.125-2.211 0-3.058-1.914-3.058-4.125 0-2.2.847-4.081 3.058-4.081 2.2 0 3.036 1.88 3.036 4.08zm-1.892 0c0-.98-.176-2.52-1.144-2.52-.98 0-1.166 1.54-1.166 2.52 0 1 .187 2.54 1.166 2.54.968 0 1.144-1.54 1.144-2.54zm9.02-1.298c0 .924-.352 1.639-.87 2.409l-1.88 2.805h-2.233l1.936-2.684.022-.033a1.8 1.8 0 0 1-.55.088c-1.364 0-2.563-1.023-2.563-2.541 0-1.771 1.386-2.827 3.069-2.827 1.705 0 3.069 1.078 3.069 2.783zm-1.848-.022c0-.671-.473-1.243-1.21-1.243s-1.232.517-1.232 1.254c0 .704.484 1.22 1.21 1.22s1.232-.505 1.232-1.231zm8.954.022c0 .924-.352 1.639-.87 2.409l-1.88 2.805h-2.233l1.936-2.684.022-.033a1.8 1.8 0 0 1-.55.088c-1.364 0-2.563-1.023-2.563-2.541 0-1.771 1.386-2.827 3.069-2.827 1.705 0 3.069 1.078 3.069 2.783zm-1.848-.022c0-.671-.473-1.243-1.21-1.243s-1.232.517-1.232 1.254c0 .704.484 1.22 1.21 1.22s1.232-.505 1.232-1.231z"/>
            <text fill="#8D9096" font-family="AvenirNextforINTUIT-Demi, AvenirNext forINTUIT" font-size="10" font-weight="500" transform="translate(56.836 33.148)">
                <tspan x="0" y="55">Importing your tax docs</tspan>
            </text>
        </g>
        <g opacity=".482">
            <path fill="#393A3D" d="M27.538 10.01h18v102h-18z"/>
            <g fill-rule="nonzero" transform="translate(30.538 13.01)">
                <ellipse cx="6.078" cy="6.076" fill="#D52B1E" rx="5.893" ry="5.731"/>
                <path fill="#FFF" d="M4.727 8.2A24.296 24.296 0 0 1 2.81 6.69c-.218.482-.424.99-.604 1.497.977.811 2.276 1.75 3.175 2.282 1.157-2.967 2.97-4.895 4.705-6.252A4.318 4.318 0 0 0 9.2 2.975a15.607 15.607 0 0 0-4.473 5.224z"/>
            </g>
        </g>
    </g>
</svg>
